<?xml version="1.0" encoding="UTF-8" standalone="no"?>
<!-- Created with Inkscape (http://www.inkscape.org/) -->

<svg
   xmlns:dc="http://purl.org/dc/elements/1.1/"
   xmlns:cc="http://creativecommons.org/ns#"
   xmlns:rdf="http://www.w3.org/1999/02/22-rdf-syntax-ns#"
   xmlns:svg="http://www.w3.org/2000/svg"
   xmlns="http://www.w3.org/2000/svg"
   xmlns:sodipodi="http://sodipodi.sourceforge.net/DTD/sodipodi-0.dtd"
   xmlns:inkscape="http://www.inkscape.org/namespaces/inkscape"
   width="50mm"
   height="50mm"
   viewBox="0 0 50 50"
   version="1.1"
   id="svg8"
   inkscape:version="0.92.4 (unknown)"
   sodipodi:docname="L.svg">
  <defs
     id="defs2" />
  <sodipodi:namedview
     id="base"
     pagecolor="#ffffff"
     bordercolor="#666666"
     borderopacity="1.0"
     inkscape:pageopacity="0.0"
     inkscape:pageshadow="2"
     inkscape:zoom="1.1262887"
     inkscape:cx="256.89845"
     inkscape:cy="-9.5898984"
     inkscape:document-units="mm"
     inkscape:current-layer="layer1"
     showgrid="false"
     inkscape:window-width="1366"
     inkscape:window-height="716"
     inkscape:window-x="0"
     inkscape:window-y="0"
     inkscape:window-maximized="1" />
  <metadata
     id="metadata5">
    <rdf:RDF>
      <cc:Work
         rdf:about="">
        <dc:format>image/svg+xml</dc:format>
        <dc:type
           rdf:resource="http://purl.org/dc/dcmitype/StillImage" />
        <dc:title></dc:title>
      </cc:Work>
    </rdf:RDF>
  </metadata>
  <g
     inkscape:label="Layer 1"
     inkscape:groupmode="layer"
     id="layer1"
     transform="translate(577.45648,58.899231)">
    <rect
       style="opacity:1;fill:#ffffff;fill-opacity:1;fill-rule:nonzero;stroke:none;stroke-width:6.42350197;stroke-linecap:butt;stroke-linejoin:miter;stroke-miterlimit:4;stroke-dasharray:none;stroke-opacity:1;paint-order:stroke fill markers"
       id="rect1268"
       width="50"
       height="50"
       x="-577.45648"
       y="-58.899231"
       inkscape:export-xdpi="152.39995"
       inkscape:export-ydpi="152.39995" />
    <text
       id="text833"
       y="140.63896"
       x="-350.0423"
       style="font-style:normal;font-variant:normal;font-weight:normal;font-stretch:normal;font-size:10.58333302px;line-height:1.25;font-family:'Noto Sans';-inkscape-font-specification:'Noto Sans';letter-spacing:0px;word-spacing:0px;fill:#000000;fill-opacity:1;stroke:none;stroke-width:0.26458332"
       xml:space="preserve"><tspan
         style="font-style:normal;font-variant:normal;font-weight:normal;font-stretch:normal;font-family:Potion;-inkscape-font-specification:Potion;stroke-width:0.26458332"
         y="140.63896"
         x="-350.0423"
         id="tspan831"
         sodipodi:role="line">XdotX</tspan></text>
    <g
       aria-label="XdotX"
       style="font-style:normal;font-variant:normal;font-weight:normal;font-stretch:normal;font-size:10.58333302px;line-height:1.25;font-family:'Noto Sans';-inkscape-font-specification:'Noto Sans';letter-spacing:0px;word-spacing:0px;fill:#000000;fill-opacity:1;stroke:none;stroke-width:0.26458332"
       id="text837">
      <path
         d="m -349.25113,145.75238 h 1.12138 l 1.91719,2.86804 1.92754,-2.86804 h 1.12137 l -2.48046,3.7052 2.64583,4.01009 h -1.12138 l -2.17041,-3.28146 -2.18591,3.28146 h -1.12655 l 2.75435,-4.11861 z"
         style="font-style:normal;font-variant:normal;font-weight:normal;font-stretch:normal;font-family:Potion;-inkscape-font-specification:Potion;fill:#4d4d4d;stroke-width:0.26458332"
         id="path839"
         inkscape:connector-curvature="0" />
      <g
         id="g853">
        <path
           id="path841"
           style="font-style:normal;font-variant:normal;font-weight:normal;font-stretch:normal;font-family:Potion;-inkscape-font-specification:Potion;stroke-width:0.26458332"
           d="m -337.10613,146.0805 v 4.93183 q 0,1.04775 -0.70909,1.75684 -0.6985,0.6985 -1.75683,0.6985 -1.04775,0 -1.75683,-0.6985 -0.6985,-0.70909 -0.6985,-1.75684 0,-1.05833 0.6985,-1.75683 0.70908,-0.70908 1.75683,-0.70908 1.05833,0 1.76742,0.6985 v -3.16442 q 0.16933,0.0106 0.33866,0.0106 0.17992,0 0.35984,-0.0106 z m -1.18534,3.65125 q -0.48683,-0.48683 -1.28058,-0.48683 -0.78317,0 -1.27,0.48683 -0.48683,0.48683 -0.48683,1.28058 0,0.78317 0.48683,1.27 0.48683,0.48684 1.27,0.48684 0.39158,0 0.71967,-0.127 0.32808,-0.127 0.56091,-0.35984 0.23284,-0.23283 0.35984,-0.56091 0.127,-0.32809 0.127,-0.70909 0,-0.79375 -0.48684,-1.28058 z"
           inkscape:connector-curvature="0" />
        <path
           id="path843"
           style="font-style:normal;font-variant:normal;font-weight:normal;font-stretch:normal;font-family:Potion;-inkscape-font-specification:Potion;stroke-width:0.26458332"
           d="m -334.81765,149.2555 q 0.70908,-0.70908 1.75683,-0.70908 1.05833,0 1.75683,0.70908 0.70909,0.6985 0.70909,1.75683 0,1.04775 -0.70909,1.75684 -0.6985,0.6985 -1.75683,0.6985 -1.04775,0 -1.75683,-0.6985 -0.6985,-0.70909 -0.6985,-1.75684 0,-1.05833 0.6985,-1.75683 z m 3.03741,0.47625 q -0.48683,-0.48683 -1.28058,-0.48683 -0.78317,0 -1.27,0.48683 -0.48683,0.48683 -0.48683,1.28058 0,0.78317 0.48683,1.27 0.48683,0.48684 1.27,0.48684 0.39158,0 0.71967,-0.127 0.32808,-0.127 0.56091,-0.35984 0.23284,-0.23283 0.35984,-0.56091 0.127,-0.32809 0.127,-0.70909 0,-0.79375 -0.48684,-1.28058 z"
           inkscape:connector-curvature="0" />
        <path
           id="path845"
           style="font-style:normal;font-variant:normal;font-weight:normal;font-stretch:normal;font-family:Potion;-inkscape-font-specification:Potion;stroke-width:0.26458332"
           d="m -329.00492,146.0805 h 0.6985 v 2.46592 h 1.40758 v 0.6985 h -1.40758 v 1.76741 q 0,0.78317 0.48683,1.27 0.48683,0.48684 1.27,0.48684 v 0.6985 q -1.04775,0 -1.75683,-0.6985 -0.6985,-0.70909 -0.6985,-1.75684 z"
           inkscape:connector-curvature="0" />
      </g>
      <path
         d="m -324.92187,145.75238 h 1.12138 l 1.9172,2.86804 1.92753,-2.86804 h 1.12138 l -2.48047,3.7052 2.64583,4.01009 h -1.12138 l -2.17041,-3.28146 -2.18591,3.28146 h -1.12655 l 2.75436,-4.11861 z"
         style="font-style:normal;font-variant:normal;font-weight:normal;font-stretch:normal;font-family:Potion;-inkscape-font-specification:Potion;fill:#666666;stroke-width:0.26458332"
         id="path847"
         inkscape:connector-curvature="0" />
      <path
         id="path855"
         style="font-style:normal;font-variant:normal;font-weight:normal;font-stretch:normal;font-family:Potion;-inkscape-font-specification:Potion;fill:#4d4d4d;stroke-width:0.53078568"
         d="m -309.92662,137.13821 h 2.24962 l 3.84611,5.75363 3.86688,-5.75363 h 2.2496 l -4.9761,7.43307 5.30785,8.04472 h -2.24962 l -4.3541,-6.583 -4.3852,6.583 h -2.25999 l 5.52555,-8.26242 z"
         inkscape:connector-curvature="0" />
      <g
         id="g863"
         transform="translate(43.717228,-7.2239294)">
        <path
           d="m -337.10613,146.0805 v 4.93183 q 0,1.04775 -0.70909,1.75684 -0.6985,0.6985 -1.75683,0.6985 -1.04775,0 -1.75683,-0.6985 -0.6985,-0.70909 -0.6985,-1.75684 0,-1.05833 0.6985,-1.75683 0.70908,-0.70908 1.75683,-0.70908 1.05833,0 1.76742,0.6985 v -3.16442 q 0.16933,0.0106 0.33866,0.0106 0.17992,0 0.35984,-0.0106 z m -1.18534,3.65125 q -0.48683,-0.48683 -1.28058,-0.48683 -0.78317,0 -1.27,0.48683 -0.48683,0.48683 -0.48683,1.28058 0,0.78317 0.48683,1.27 0.48683,0.48684 1.27,0.48684 0.39158,0 0.71967,-0.127 0.32808,-0.127 0.56091,-0.35984 0.23284,-0.23283 0.35984,-0.56091 0.127,-0.32809 0.127,-0.70909 0,-0.79375 -0.48684,-1.28058 z"
           style="font-style:normal;font-variant:normal;font-weight:normal;font-stretch:normal;font-family:Potion;-inkscape-font-specification:Potion;stroke-width:0.26458332"
           id="path857"
           inkscape:connector-curvature="0" />
        <path
           d="m -334.81765,149.2555 q 0.70908,-0.70908 1.75683,-0.70908 1.05833,0 1.75683,0.70908 0.70909,0.6985 0.70909,1.75683 0,1.04775 -0.70909,1.75684 -0.6985,0.6985 -1.75683,0.6985 -1.04775,0 -1.75683,-0.6985 -0.6985,-0.70909 -0.6985,-1.75684 0,-1.05833 0.6985,-1.75683 z m 3.03741,0.47625 q -0.48683,-0.48683 -1.28058,-0.48683 -0.78317,0 -1.27,0.48683 -0.48683,0.48683 -0.48683,1.28058 0,0.78317 0.48683,1.27 0.48683,0.48684 1.27,0.48684 0.39158,0 0.71967,-0.127 0.32808,-0.127 0.56091,-0.35984 0.23284,-0.23283 0.35984,-0.56091 0.127,-0.32809 0.127,-0.70909 0,-0.79375 -0.48684,-1.28058 z"
           style="font-style:normal;font-variant:normal;font-weight:normal;font-stretch:normal;font-family:Potion;-inkscape-font-specification:Potion;stroke-width:0.26458332"
           id="path859"
           inkscape:connector-curvature="0" />
        <path
           d="m -329.00492,146.0805 h 0.6985 v 2.46592 h 1.40758 v 0.6985 h -1.40758 v 1.76741 q 0,0.78317 0.48683,1.27 0.48683,0.48684 1.27,0.48684 v 0.6985 q -1.04775,0 -1.75683,-0.6985 -0.6985,-0.70909 -0.6985,-1.75684 z"
           style="font-style:normal;font-variant:normal;font-weight:normal;font-stretch:normal;font-family:Potion;-inkscape-font-specification:Potion;stroke-width:0.26458332"
           id="path861"
           inkscape:connector-curvature="0" />
      </g>
      <path
         id="path865"
         style="font-style:normal;font-variant:normal;font-weight:normal;font-stretch:normal;font-family:Potion;-inkscape-font-specification:Potion;fill:#666666;stroke-width:0.26458332"
         d="m -289.53754,138.52845 h 1.12138 l 1.9172,2.86804 1.92753,-2.86804 h 1.12138 l -2.48047,3.7052 2.64583,4.01009 h -1.12138 l -2.17041,-3.28146 -2.18591,3.28146 h -1.12655 l 2.75436,-4.11861 z"
         inkscape:connector-curvature="0" />
      <path
         inkscape:connector-curvature="0"
         d="m -283.28469,122.16133 v 2.24276 l -5.73607,3.83438 5.73607,3.85508 v 2.24275 l -7.41039,-4.96092 -8.02018,5.29166 v -2.24276 l 6.56292,-4.34082 -6.56292,-4.37182 v -2.2531 l 8.23722,5.5087 z"
         style="font-style:normal;font-variant:normal;font-weight:normal;font-stretch:normal;font-family:Potion;-inkscape-font-specification:Potion;fill:#4d4d4d;stroke-width:0.52916664"
         id="path867" />
      <g
         transform="translate(52.9405,9.83351)"
         id="g875">
        <path
           inkscape:connector-curvature="0"
           id="path869"
           style="font-style:normal;font-variant:normal;font-weight:normal;font-stretch:normal;font-family:Potion;-inkscape-font-specification:Potion;stroke-width:0.26458332"
           d="m -337.10613,146.0805 v 4.93183 q 0,1.04775 -0.70909,1.75684 -0.6985,0.6985 -1.75683,0.6985 -1.04775,0 -1.75683,-0.6985 -0.6985,-0.70909 -0.6985,-1.75684 0,-1.05833 0.6985,-1.75683 0.70908,-0.70908 1.75683,-0.70908 1.05833,0 1.76742,0.6985 v -3.16442 q 0.16933,0.0106 0.33866,0.0106 0.17992,0 0.35984,-0.0106 z m -1.18534,3.65125 q -0.48683,-0.48683 -1.28058,-0.48683 -0.78317,0 -1.27,0.48683 -0.48683,0.48683 -0.48683,1.28058 0,0.78317 0.48683,1.27 0.48683,0.48684 1.27,0.48684 0.39158,0 0.71967,-0.127 0.32808,-0.127 0.56091,-0.35984 0.23284,-0.23283 0.35984,-0.56091 0.127,-0.32809 0.127,-0.70909 0,-0.79375 -0.48684,-1.28058 z" />
        <path
           inkscape:connector-curvature="0"
           id="path871"
           style="font-style:normal;font-variant:normal;font-weight:normal;font-stretch:normal;font-family:Potion;-inkscape-font-specification:Potion;stroke-width:0.26458332"
           d="m -334.81765,149.2555 q 0.70908,-0.70908 1.75683,-0.70908 1.05833,0 1.75683,0.70908 0.70909,0.6985 0.70909,1.75683 0,1.04775 -0.70909,1.75684 -0.6985,0.6985 -1.75683,0.6985 -1.04775,0 -1.75683,-0.6985 -0.6985,-0.70909 -0.6985,-1.75684 0,-1.05833 0.6985,-1.75683 z m 3.03741,0.47625 q -0.48683,-0.48683 -1.28058,-0.48683 -0.78317,0 -1.27,0.48683 -0.48683,0.48683 -0.48683,1.28058 0,0.78317 0.48683,1.27 0.48683,0.48684 1.27,0.48684 0.39158,0 0.71967,-0.127 0.32808,-0.127 0.56091,-0.35984 0.23284,-0.23283 0.35984,-0.56091 0.127,-0.32809 0.127,-0.70909 0,-0.79375 -0.48684,-1.28058 z" />
        <path
           inkscape:connector-curvature="0"
           id="path873"
           style="font-style:normal;font-variant:normal;font-weight:normal;font-stretch:normal;font-family:Potion;-inkscape-font-specification:Potion;stroke-width:0.26458332"
           d="m -329.00492,146.0805 h 0.6985 v 2.46592 h 1.40758 v 0.6985 h -1.40758 v 1.76741 q 0,0.78317 0.48683,1.27 0.48683,0.48684 1.27,0.48684 v 0.6985 q -1.04775,0 -1.75683,-0.6985 -0.6985,-0.70909 -0.6985,-1.75684 z" />
      </g>
      <path
         inkscape:connector-curvature="0"
         d="m -288.73441,155.73815 h 1.12481 l 1.92306,2.87681 1.93344,-2.87681 h 1.1248 l -2.48805,3.71653 2.65392,4.02236 h -1.12481 l -2.17705,-3.2915 -2.1926,3.2915 h -1.12999 l 2.76277,-4.13121 z"
         style="font-style:normal;font-variant:normal;font-weight:normal;font-stretch:normal;font-family:Potion;-inkscape-font-specification:Potion;fill:#4d4d4d;stroke-width:0.26539284"
         id="path897" />
      <path
         id="path899"
         style="font-style:normal;font-variant:normal;font-weight:normal;font-stretch:normal;font-family:Potion;-inkscape-font-specification:Potion;fill:#4d4d4d;stroke-width:0.26539284"
         d="m -279.88107,155.73815 h 1.12481 l 1.92306,2.87681 1.93344,-2.87681 h 1.1248 l -2.48805,3.71653 2.65392,4.02236 h -1.12481 l -2.17705,-3.2915 -2.1926,3.2915 h -1.12999 l 2.76277,-4.13121 z"
         inkscape:connector-curvature="0" />
      <g
         id="g922">
        <path
           id="path913"
           style="font-style:normal;font-variant:normal;font-weight:normal;font-stretch:normal;font-family:Potion;-inkscape-font-specification:Potion;fill:#4d4d4d;stroke-width:0.85633141"
           d="m -361.04391,160.72282 h 3.62513 l 6.19778,9.29337 6.23123,-9.29337 h 3.62512 l -8.01869,12.00602 8.55328,12.99398 h -3.62513 l -7.01637,-10.63299 -7.06648,10.63299 h -3.64184 l 8.9041,-13.34562 z"
           inkscape:connector-curvature="0" />
        <path
           id="path915"
           style="font-style:normal;font-variant:normal;font-weight:normal;font-stretch:normal;font-family:Potion;-inkscape-font-specification:Potion;fill:#666666;stroke-width:0.85633141"
           d="m -332.3937,160.72282 h 3.62513 l 6.19779,9.29337 6.2312,-9.29337 h 3.62513 l -8.01871,12.00602 8.55328,12.99398 h -3.62513 l -7.01637,-10.63299 -7.06648,10.63299 h -3.64184 l 8.90413,-13.34562 z"
           inkscape:connector-curvature="0" />
      </g>
      <g
         id="g909"
         transform="matrix(1.6163701,0,0,1.6163701,203.15403,-68.867533)">
        <path
           d="m -337.10613,146.0805 v 4.93183 q 0,1.04775 -0.70909,1.75684 -0.6985,0.6985 -1.75683,0.6985 -1.04775,0 -1.75683,-0.6985 -0.6985,-0.70909 -0.6985,-1.75684 0,-1.05833 0.6985,-1.75683 0.70908,-0.70908 1.75683,-0.70908 1.05833,0 1.76742,0.6985 v -3.16442 q 0.16933,0.0106 0.33866,0.0106 0.17992,0 0.35984,-0.0106 z m -1.18534,3.65125 q -0.48683,-0.48683 -1.28058,-0.48683 -0.78317,0 -1.27,0.48683 -0.48683,0.48683 -0.48683,1.28058 0,0.78317 0.48683,1.27 0.48683,0.48684 1.27,0.48684 0.39158,0 0.71967,-0.127 0.32808,-0.127 0.56091,-0.35984 0.23284,-0.23283 0.35984,-0.56091 0.127,-0.32809 0.127,-0.70909 0,-0.79375 -0.48684,-1.28058 z"
           style="font-style:normal;font-variant:normal;font-weight:normal;font-stretch:normal;font-family:Potion;-inkscape-font-specification:Potion;stroke-width:0.26458332"
           id="path903"
           inkscape:connector-curvature="0" />
        <path
           d="m -334.81765,149.2555 q 0.70908,-0.70908 1.75683,-0.70908 1.05833,0 1.75683,0.70908 0.70909,0.6985 0.70909,1.75683 0,1.04775 -0.70909,1.75684 -0.6985,0.6985 -1.75683,0.6985 -1.04775,0 -1.75683,-0.6985 -0.6985,-0.70909 -0.6985,-1.75684 0,-1.05833 0.6985,-1.75683 z m 3.03741,0.47625 q -0.48683,-0.48683 -1.28058,-0.48683 -0.78317,0 -1.27,0.48683 -0.48683,0.48683 -0.48683,1.28058 0,0.78317 0.48683,1.27 0.48683,0.48684 1.27,0.48684 0.39158,0 0.71967,-0.127 0.32808,-0.127 0.56091,-0.35984 0.23284,-0.23283 0.35984,-0.56091 0.127,-0.32809 0.127,-0.70909 0,-0.79375 -0.48684,-1.28058 z"
           style="font-style:normal;font-variant:normal;font-weight:normal;font-stretch:normal;font-family:Potion;-inkscape-font-specification:Potion;stroke-width:0.26458332"
           id="path905"
           inkscape:connector-curvature="0" />
        <path
           d="m -329.00492,146.0805 h 0.6985 v 2.46592 h 1.40758 v 0.6985 h -1.40758 v 1.76741 q 0,0.78317 0.48683,1.27 0.48683,0.48684 1.27,0.48684 v 0.6985 q -1.04775,0 -1.75683,-0.6985 -0.6985,-0.70909 -0.6985,-1.75684 z"
           style="font-style:normal;font-variant:normal;font-weight:normal;font-stretch:normal;font-family:Potion;-inkscape-font-specification:Potion;stroke-width:0.26458332"
           id="path907"
           inkscape:connector-curvature="0" />
      </g>
      <path
         style="opacity:1;fill:#4d4d4d;fill-opacity:1;fill-rule:nonzero;stroke:none;stroke-width:24.16099548;stroke-linecap:butt;stroke-linejoin:miter;stroke-miterlimit:4;stroke-dasharray:none;stroke-opacity:1;paint-order:fill markers stroke"
         d="m -364.23278,204.4042 h 50 v 25 h -50 z"
         id="rect917"
         inkscape:connector-curvature="0" />
      <path
         style="font-style:normal;font-variant:normal;font-weight:normal;font-stretch:normal;font-family:Potion;-inkscape-font-specification:Potion;fill:#4d4d4d;stroke-width:3.23652816"
         d="m -1581.3926,586.89453 29.3594,44.04883 -33.6523,50.43945 h 13.7636 l 26.709,-40.1875 26.5176,40.1875 h 13.7012 l -32.3282,-49.11133 30.3086,-45.37695 h -13.7011 l -23.5528,35.125 -23.4238,-35.125 z"
         transform="scale(0.26458333)"
         id="path968"
         inkscape:connector-curvature="0"
         sodipodi:nodetypes="ccccccccccccc" />
      <path
         style="font-style:normal;font-variant:normal;font-weight:normal;font-stretch:normal;font-family:Potion;-inkscape-font-specification:Potion;fill:#4d4d4d;stroke-width:3.23652816"
         d="m -1689.6777,586.89453 29.3613,44.04883 -33.6543,50.43945 h 13.7656 l 26.7071,-40.1875 26.5195,40.1875 h 13.7012 l -32.3282,-49.11133 30.3067,-45.37695 H -1629 l -23.5508,35.125 -23.4258,-35.125 z"
         transform="scale(0.26458333)"
         id="path960"
         inkscape:connector-curvature="0"
         sodipodi:nodetypes="ccccccccccccc" />
      <g
         id="g989"
         transform="matrix(0.92732167,0,0,0.92732167,-31.286374,9.5483315)">
        <path
           inkscape:connector-curvature="0"
           id="path936"
           style="font-style:normal;font-variant:normal;font-weight:normal;font-stretch:normal;font-family:Potion;-inkscape-font-specification:Potion;stroke-width:0.42766458"
           d="m -426.16318,161.81244 v 7.97166 q 0,1.69355 -1.14615,2.8397 -1.12904,1.12904 -2.83969,1.12904 -1.69355,0 -2.83969,-1.12904 -1.12903,-1.14615 -1.12903,-2.8397 0,-1.71065 1.12903,-2.83969 1.14614,-1.14613 2.83969,-1.14613 1.71065,0 2.85681,1.12903 v -5.11487 q 0.2737,0.0171 0.5474,0.0171 0.29081,0 0.58163,-0.0171 z m -1.91595,5.90177 q -0.78689,-0.7869 -2.06989,-0.7869 -1.26589,0 -2.05279,0.7869 -0.7869,0.7869 -0.7869,2.06989 0,1.26589 0.7869,2.05279 0.7869,0.78691 2.05279,0.78691 0.63294,0 1.16325,-0.20527 0.5303,-0.20528 0.90664,-0.58164 0.37636,-0.37634 0.58164,-0.90664 0.20528,-0.53031 0.20528,-1.14615 0,-1.28299 -0.78692,-2.06989 z" />
        <path
           inkscape:connector-curvature="0"
           id="path938"
           style="font-style:normal;font-variant:normal;font-weight:normal;font-stretch:normal;font-family:Potion;-inkscape-font-specification:Potion;stroke-width:0.42766458"
           d="m -424.05166,166.94441 q 1.14614,-1.14613 2.83969,-1.14613 1.71065,0 2.83969,1.14613 1.14615,1.12904 1.14615,2.83969 0,1.69355 -1.14615,2.8397 -1.12904,1.12904 -2.83969,1.12904 -1.69355,0 -2.83969,-1.12904 -1.12903,-1.14615 -1.12903,-2.8397 0,-1.71065 1.12903,-2.83969 z m 4.90958,0.7698 q -0.7869,-0.7869 -2.06989,-0.7869 -1.26589,0 -2.05279,0.7869 -0.7869,0.7869 -0.7869,2.06989 0,1.26589 0.7869,2.05279 0.7869,0.78691 2.05279,0.78691 0.63294,0 1.16325,-0.20527 0.5303,-0.20528 0.90664,-0.58164 0.37636,-0.37634 0.58163,-0.90664 0.20528,-0.53031 0.20528,-1.14615 0,-1.28299 -0.78691,-2.06989 z" />
        <path
           inkscape:connector-curvature="0"
           id="path940"
           style="font-style:normal;font-variant:normal;font-weight:normal;font-stretch:normal;font-family:Potion;-inkscape-font-specification:Potion;stroke-width:0.42766458"
           d="m -416.24365,161.81244 h 1.12904 v 3.98584 h 2.27517 v 1.12903 h -2.27517 v 2.85679 q 0,1.26589 0.7869,2.05279 0.78689,0.78691 2.05279,0.78691 v 1.12904 q -1.69356,0 -2.83969,-1.12904 -1.12904,-1.14615 -1.12904,-2.8397 z" />
      </g>
    </g>
    <path
       inkscape:connector-curvature="0"
       id="path995"
       style="font-style:normal;font-variant:normal;font-weight:normal;font-stretch:normal;font-size:10.58333302px;line-height:1.25;font-family:Potion;-inkscape-font-specification:Potion;letter-spacing:0px;word-spacing:0px;fill:#666666;fill-opacity:1;stroke:none;stroke-width:0.85532916"
       d="m -476.77884,74.145927 h 3.62512 l 6.19778,9.271636 6.2312,-9.271636 h 3.62514 l -8.01872,11.97795 8.5533,12.963582 h -3.62512 l -7.01638,-10.608086 -7.06647,10.608086 h -3.64184 l 8.90409,-13.3144 z" />
    <path
       inkscape:connector-curvature="0"
       id="path1003"
       style="font-style:normal;font-variant:normal;font-weight:normal;font-stretch:normal;font-size:10.58333302px;line-height:1.25;font-family:Potion;-inkscape-font-specification:Potion;letter-spacing:0px;word-spacing:0px;fill:#808080;fill-opacity:1;stroke:none;stroke-width:0.85532916"
       d="m -448.12867,99.204397 h 3.62514 l 6.1978,9.271633 6.23121,-9.271633 h 3.62513 l -8.01872,11.977933 8.55328,12.9636 h -3.62512 l -7.01638,-10.6081 -7.06648,10.6081 h -3.64184 l 8.90414,-13.3144 z" />
    <rect
       style="opacity:1;fill:#000000;fill-opacity:1;fill-rule:nonzero;stroke:none;stroke-width:9.75199986;stroke-linecap:butt;stroke-linejoin:miter;stroke-miterlimit:4;stroke-dasharray:none;stroke-opacity:1;paint-order:fill markers stroke"
       id="rect1006"
       width="50"
       height="50"
       x="-394.56714"
       y="56.490997" />
    <g
       id="g1016"
       transform="translate(-19.137285,7.1774554)">
      <path
         d="m -438.33191,85.998275 v 7.971667 q 0,1.693552 -1.14613,2.839692 -1.12904,1.129035 -2.83969,1.129035 -1.69355,0 -2.8397,-1.129035 -1.12904,-1.14614 -1.12904,-2.839692 0,-1.710658 1.12904,-2.839692 1.14615,-1.146142 2.8397,-1.146142 1.71065,0 2.85679,1.129034 v -5.114867 q 0.27372,0.0171 0.54742,0.0171 0.29081,0 0.58161,-0.0171 z m -1.91593,5.901771 q -0.7869,-0.786904 -2.06989,-0.786904 -1.26589,0 -2.05279,0.786904 -0.78691,0.786902 -0.78691,2.069896 0,1.265888 0.78691,2.05279 0.7869,0.786902 2.05279,0.786902 0.63294,0 1.16324,-0.205279 0.53031,-0.205279 0.90665,-0.581623 0.37634,-0.376344 0.58162,-0.906649 0.20528,-0.530304 0.20528,-1.146141 0,-1.282994 -0.7869,-2.069896 z"
         style="font-style:normal;font-variant:normal;font-weight:normal;font-stretch:normal;font-size:10.58333302px;line-height:1.25;font-family:Potion;-inkscape-font-specification:Potion;letter-spacing:0px;word-spacing:0px;fill:#000000;fill-opacity:1;stroke:none;stroke-width:0.42766458"
         id="path997"
         inkscape:connector-curvature="0" />
      <path
         d="m -434.63288,91.13025 q 1.14616,-1.146142 2.83971,-1.146142 1.71065,0 2.83969,1.146142 1.14613,1.129034 1.14613,2.839692 0,1.693552 -1.14613,2.839692 -1.12904,1.129035 -2.83969,1.129035 -1.69355,0 -2.83971,-1.129035 -1.12903,-1.14614 -1.12903,-2.839692 0,-1.710658 1.12903,-2.839692 z m 4.9096,0.769796 q -0.7869,-0.786904 -2.06989,-0.786904 -1.26589,0 -2.05279,0.786904 -0.78692,0.786902 -0.78692,2.069896 0,1.265888 0.78692,2.05279 0.7869,0.786902 2.05279,0.786902 0.63294,0 1.16324,-0.205279 0.53031,-0.205279 0.90665,-0.581623 0.37634,-0.376344 0.58162,-0.906649 0.20528,-0.530304 0.20528,-1.146141 0,-1.282994 -0.7869,-2.069896 z"
         style="font-style:normal;font-variant:normal;font-weight:normal;font-stretch:normal;font-size:10.58333302px;line-height:1.25;font-family:Potion;-inkscape-font-specification:Potion;letter-spacing:0px;word-spacing:0px;fill:#000000;fill-opacity:1;stroke:none;stroke-width:0.42766458"
         id="path999"
         inkscape:connector-curvature="0" />
      <path
         d="m -425.23734,85.998275 h 1.12904 v 3.985833 h 2.27517 v 1.129034 h -2.27517 v 2.8568 q 0,1.265888 0.7869,2.05279 0.78689,0.786902 2.05279,0.786902 v 1.129035 q -1.69356,0 -2.83969,-1.129035 -1.12904,-1.14614 -1.12904,-2.839692 z"
         style="font-style:normal;font-variant:normal;font-weight:normal;font-stretch:normal;font-size:10.58333302px;line-height:1.25;font-family:Potion;-inkscape-font-specification:Potion;letter-spacing:0px;word-spacing:0px;fill:#000000;fill-opacity:1;stroke:none;stroke-width:0.42766458"
         id="path1001"
         inkscape:connector-curvature="0" />
    </g>
    <path
       style="font-style:normal;font-variant:normal;font-weight:normal;font-stretch:normal;font-size:10.58333302px;line-height:1.25;font-family:Potion;-inkscape-font-specification:Potion;letter-spacing:0px;word-spacing:0px;fill:#000000;fill-opacity:1;stroke:none;stroke-width:1.61637008"
       d="m -1733.2852,352.16016 v 19.33203 c -2.8879,-2.84481 -6.4865,-4.26758 -10.7968,-4.26758 -4.2672,0 -7.8445,1.44411 -10.7325,4.33203 -2.8448,2.84481 -4.2675,6.4221 -4.2675,10.73242 0,4.26722 1.4227,7.84451 4.2675,10.73242 2.888,2.8448 6.4653,4.26758 10.7325,4.26758 4.3103,0 7.8876,-1.42278 10.7324,-4.26758 2.8879,-2.88791 4.332,-6.4652 4.332,-10.73242 v -30.1289 c -0.7327,0.0431 -1.4645,0.0644 -2.1972,0.0644 -0.6897,0 -1.3807,-0.0214 -2.0704,-0.0644 z m 53.7598,0 v 30.1289 c 0,4.26722 1.4208,7.84451 4.2656,10.73242 2.8879,2.8448 6.4672,4.26758 10.7344,4.26758 v -4.26758 c -3.1897,0 -5.777,-0.98991 -7.7598,-2.97265 -1.9827,-1.98274 -2.9746,-4.57012 -2.9746,-7.75977 v -10.79687 h 8.5996 v -4.26758 h -8.5996 v -15.06445 z m -24.7793,15.06445 c -4.2672,0 -7.8444,1.44411 -10.7324,4.33203 -2.8448,2.84481 -4.2676,6.4221 -4.2676,10.73242 0,4.26722 1.4228,7.84451 4.2676,10.73242 2.888,2.8448 6.4652,4.26758 10.7324,4.26758 4.3103,0 7.8876,-1.42278 10.7324,-4.26758 2.8879,-2.88791 4.3321,-6.4652 4.3321,-10.73242 0,-4.31032 -1.4442,-7.88761 -4.3321,-10.73242 -2.8448,-2.88792 -6.4221,-4.33203 -10.7324,-4.33203 z m -39.7773,4.26758 c 3.2327,0 5.8414,0.99186 7.8242,2.97461 1.9827,1.98274 2.9726,4.58951 2.9726,7.82226 0,1.5517 -0.2581,2.99582 -0.7753,4.33203 -0.5173,1.33619 -1.249,2.47945 -2.1973,3.42774 -0.9483,0.94826 -2.0915,1.68002 -3.4277,2.19726 -1.3362,0.51724 -2.8017,0.77539 -4.3965,0.77539 -3.1897,0 -5.7751,-0.98991 -7.7578,-2.97265 -1.9828,-1.98274 -2.9747,-4.57012 -2.9747,-7.75977 0,-3.23275 0.9919,-5.83952 2.9747,-7.82226 1.9827,-1.98275 4.5681,-2.97461 7.7578,-2.97461 z m 39.7773,0 c 3.2327,0 5.8415,0.99186 7.8242,2.97461 1.9828,1.98274 2.9746,4.58951 2.9746,7.82226 0,1.5517 -0.26,2.99582 -0.7773,4.33203 -0.5172,1.33619 -1.249,2.47945 -2.1973,3.42774 -0.9483,0.94826 -2.0915,1.68002 -3.4277,2.19726 -1.3362,0.51724 -2.8017,0.77539 -4.3965,0.77539 -3.1896,0 -5.7751,-0.98991 -7.7578,-2.97265 -1.9828,-1.98274 -2.9746,-4.57012 -2.9746,-7.75977 0,-3.23275 0.9918,-5.83952 2.9746,-7.82226 1.9827,-1.98275 4.5682,-2.97461 7.7578,-2.97461 z"
       transform="scale(0.26458333)"
       id="path1018"
       inkscape:connector-curvature="0" />
    <g
       id="g1075">
      <path
         transform="scale(0.26458333)"
         id="path1067"
         d="m -1969.4043,373.00977 c -0.033,-0.80185 -0.07,-1.60259 -0.207,-2.35157 -0.1805,-0.98596 -0.4496,-1.92595 -0.8106,-2.82031 -0.2025,-0.50165 -0.5005,-0.9549 -0.7597,-1.42773 h -2.6329 z"
         style="font-style:normal;font-variant:normal;font-weight:normal;font-stretch:normal;font-size:10.58333302px;line-height:1.25;font-family:Potion;-inkscape-font-specification:Potion;letter-spacing:0px;word-spacing:0px;fill:#666666;fill-opacity:1;stroke:none;stroke-width:3.23274016"
         inkscape:connector-curvature="0" />
      <path
         transform="scale(0.26458333)"
         id="path1063"
         d="m -1959.625,367.14062 -0.4883,-0.73046 h -11.0683 c 0.2592,0.47283 0.5572,0.92608 0.7597,1.42773 0.361,0.89436 0.6301,1.83435 0.8106,2.82031 0.1371,0.74898 0.174,1.54972 0.207,2.35157 l 24.9492,37.3457 -33.6523,50.32226 h 13.7636 l 26.709,-40.09375 26.5176,40.09375 h 13.7012 l -32.3262,-48.99609 30.3067,-45.27148 h -13.7012 l -23.5508,35.04296 -8.5234,-12.75 c -0.85,-0.0275 -1.6908,-0.0709 -2.4844,-0.21484 -0.9808,-0.17783 -1.9199,-0.44513 -2.8145,-0.80078 -0.8946,-0.35565 -1.7463,-0.80055 -2.5547,-1.33398 -0.8083,-0.53344 -1.5729,-1.15599 -2.2949,-1.86719 -0.7112,-0.72198 -1.3339,-1.48677 -1.8672,-2.29492 -0.5332,-0.80816 -0.9766,-1.66034 -1.332,-2.55469 -0.3554,-0.89436 -0.6212,-1.82998 -0.7988,-2.81055 -0.1777,-0.98057 -0.2676,-2.00546 -0.2676,-3.07226 z"
         style="font-style:normal;font-variant:normal;font-weight:normal;font-stretch:normal;font-size:10.58333302px;line-height:1.25;font-family:Potion;-inkscape-font-specification:Potion;letter-spacing:0px;word-spacing:0px;fill:#808080;fill-opacity:1;stroke:none;stroke-width:3.23274016"
         inkscape:connector-curvature="0" />
      <path
         transform="scale(0.26458333)"
         id="path1061"
         d="m -1959.625,367.14062 v 6.61329 c 0,1.0668 0.09,2.09169 0.2676,3.07226 0.1776,0.98057 0.4434,1.91619 0.7988,2.81055 0.3554,0.89435 0.7988,1.74653 1.332,2.55469 0.5333,0.80815 1.156,1.57294 1.8672,2.29492 0.722,0.7112 1.4866,1.33375 2.2949,1.86719 0.8084,0.53343 1.6601,0.97833 2.5547,1.33398 0.8946,0.35565 1.8337,0.62295 2.8145,0.80078 0.7936,0.1439 1.6344,0.18738 2.4844,0.21484 l -3.2598,-4.875 c -0.149,-0.0494 -0.3411,-0.0284 -0.4863,-0.084 -1.2934,-0.49532 -2.4364,-1.2391 -3.4278,-2.23047 -0.9913,-0.99137 -1.7346,-2.13434 -2.2304,-3.42773 -0.4958,-1.2934 -0.7442,-2.73721 -0.7442,-4.33203 v -0.23243 z"
         style="font-style:normal;font-variant:normal;font-weight:normal;font-stretch:normal;font-size:10.58333302px;line-height:1.25;font-family:Potion;-inkscape-font-specification:Potion;letter-spacing:0px;word-spacing:0px;fill:#666666;fill-opacity:1;stroke:none;stroke-width:3.23274016"
         inkscape:connector-curvature="0" />
      <path
         transform="scale(0.26458333)"
         id="path1055"
         d="m -2013.3848,354.32031 v 8.63672 c -0.7219,-0.7112 -1.488,-1.33375 -2.2988,-1.86719 -0.8108,-0.53343 -1.6667,-0.97833 -2.5664,-1.33398 -0.8997,-0.35565 -1.8434,-0.62099 -2.832,-0.79883 -0.9887,-0.17783 -2.0221,-0.26758 -3.0996,-0.26758 -0.011,0 -0.021,0.002 -0.031,0.002 l 3.1738,4.79882 c 0.3936,0.10055 0.8697,0.0708 1.2383,0.21094 1.3041,0.49581 2.452,1.2391 3.4434,2.23047 0.011,0.0106 0.013,0.0265 0.023,0.0371 h 7.2168 v -5.17969 z"
         style="font-style:normal;font-variant:normal;font-weight:normal;font-stretch:normal;font-size:10.58333302px;line-height:1.25;font-family:Potion;-inkscape-font-specification:Potion;letter-spacing:0px;word-spacing:0px;fill:#666666;fill-opacity:1;stroke:none;stroke-width:3.23274016"
         inkscape:connector-curvature="0" />
      <path
         transform="scale(0.26458333)"
         id="path1030"
         d="m -2082.0977,271.70117 29.3594,43.94531 -33.6543,50.32227 h 13.7656 l 26.7071,-40.09375 21.707,32.81641 c 0.011,-2e-5 0.02,-0.002 0.031,-0.002 1.0775,0 2.1109,0.0897 3.0996,0.26758 0.9886,0.17784 1.9323,0.44318 2.832,0.79883 0.8997,0.35565 1.7556,0.80055 2.5664,1.33398 0.8108,0.53344 1.5769,1.15599 2.2988,1.86719 v -8.63672 l -24.6425,-37.34765 30.3066,-45.27149 h -13.7012 l -23.5508,35.04297 -23.4238,-35.04297 z"
         style="font-style:normal;font-variant:normal;font-weight:normal;font-stretch:normal;font-size:10.58333302px;line-height:1.25;font-family:Potion;-inkscape-font-specification:Potion;letter-spacing:0px;word-spacing:0px;fill:#666666;fill-opacity:1;stroke:none;stroke-width:3.23274016"
         inkscape:connector-curvature="0" />
      <path
         inkscape:connector-curvature="0"
         style="font-style:normal;font-variant:normal;font-weight:normal;font-stretch:normal;font-size:10.58333302px;line-height:1.25;font-family:Potion;-inkscape-font-specification:Potion;letter-spacing:0px;word-spacing:0px;fill:#000000;fill-opacity:1;stroke:none;stroke-width:0.42766458"
         d="m -532.70801,90.917519 v 5.114933 c -0.76409,-0.752689 -1.71622,-1.12913 -2.85665,-1.12913 -1.12903,0 -2.07553,0.382087 -2.83964,1.146183 -0.75269,0.752689 -1.12911,1.69918 -1.12911,2.839619 0,1.129036 0.37642,2.075526 1.12911,2.839616 0.76411,0.75269 1.71061,1.12913 2.83964,1.12913 1.14043,0 2.08692,-0.37644 2.83961,-1.12913 0.76409,-0.76409 1.14617,-1.71058 1.14617,-2.839616 v -7.971605 c -0.19386,0.0114 -0.38748,0.01705 -0.58134,0.01705 -0.18248,0 -0.36531,-0.0057 -0.54779,-0.01705 z m 14.22395,0 v 7.971605 c 0,1.129036 0.37592,2.075526 1.1286,2.839616 0.76409,0.75269 1.71112,1.12913 2.84015,1.12913 v -1.12913 c -0.84395,0 -1.5285,-0.26191 -2.05312,-0.78651 -0.52459,-0.5246 -0.78703,-1.209178 -0.78703,-2.053106 v -2.856672 h 2.27531 v -1.12913 h -2.27531 v -3.985803 z m -6.55619,3.985803 c -1.12903,0 -2.0755,0.382087 -2.83962,1.146183 -0.75268,0.752689 -1.12913,1.69918 -1.12913,2.839619 0,1.129036 0.37645,2.075526 1.12913,2.839616 0.76412,0.75269 1.71059,1.12913 2.83962,1.12913 1.14043,0 2.08692,-0.37644 2.83961,-1.12913 0.76409,-0.76409 1.1462,-1.71058 1.1462,-2.839616 0,-1.140439 -0.38211,-2.08693 -1.1462,-2.839619 -0.75269,-0.764096 -1.69918,-1.146183 -2.83961,-1.146183 z m -10.52441,1.12913 c 0.85531,0 1.54553,0.26243 2.07015,0.787032 0.52459,0.5246 0.7865,1.214308 0.7865,2.06964 0,0.410554 -0.0683,0.792644 -0.20513,1.146186 -0.13687,0.35353 -0.33047,0.65602 -0.58137,0.90692 -0.25091,0.25089 -0.55338,0.44451 -0.90691,0.58136 -0.35354,0.13685 -0.74129,0.20515 -1.16324,0.20515 -0.84395,0 -1.528,-0.26191 -2.05259,-0.78651 -0.52461,-0.5246 -0.78705,-1.209178 -0.78705,-2.053106 0,-0.855332 0.26244,-1.54504 0.78705,-2.06964 0.52459,-0.524602 1.20864,-0.787032 2.05259,-0.787032 z m 10.52441,0 c 0.85531,0 1.54556,0.26243 2.07015,0.787032 0.52461,0.5246 0.78703,1.214308 0.78703,2.06964 0,0.410554 -0.0688,0.792644 -0.20566,1.146186 -0.13684,0.35353 -0.33047,0.65602 -0.58137,0.90692 -0.25091,0.25089 -0.55338,0.44451 -0.90691,0.58136 -0.35354,0.13685 -0.74129,0.20515 -1.16324,0.20515 -0.84392,0 -1.528,-0.26191 -2.05259,-0.78651 -0.52461,-0.5246 -0.78703,-1.209178 -0.78703,-2.053106 0,-0.855332 0.26242,-1.54504 0.78703,-2.06964 0.52459,-0.524602 1.20867,-0.787032 2.05259,-0.787032 z"
         id="path1034" />
    </g>
    <g
       id="g1093">
      <path
         inkscape:connector-curvature="0"
         id="path1077"
         style="font-style:normal;font-variant:normal;font-weight:normal;font-stretch:normal;font-size:10.58333302px;line-height:1.25;font-family:Potion;-inkscape-font-specification:Potion;letter-spacing:0px;word-spacing:0px;fill:#666666;fill-opacity:1;stroke:none;stroke-width:0.85532916"
         d="m -675.49943,73.324768 h 3.62512 l 6.19778,9.271636 6.2312,-9.271636 h 3.62514 l -8.01872,11.97795 8.5533,12.963582 h -3.62512 l -7.01638,-10.608086 -7.06647,10.608086 h -3.64184 l 8.90409,-13.3144 z" />
      <path
         inkscape:connector-curvature="0"
         id="path1079"
         style="font-style:normal;font-variant:normal;font-weight:normal;font-stretch:normal;font-size:10.58333302px;line-height:1.25;font-family:Potion;-inkscape-font-specification:Potion;letter-spacing:0px;word-spacing:0px;fill:#808080;fill-opacity:1;stroke:none;stroke-width:0.85532916"
         d="m -646.84926,98.383238 h 3.62514 l 6.1978,9.271632 6.23121,-9.271632 h 3.62513 l -8.01872,11.977932 8.55328,12.9636 h -3.62512 l -7.01638,-10.6081 -7.06648,10.6081 h -3.64184 l 8.90414,-13.3144 z" />
    </g>
    <g
       transform="matrix(1.9985722,0,0,1.9985722,215.30031,-85.480862)"
       id="g1087">
      <path
         inkscape:connector-curvature="0"
         id="path1081"
         style="font-style:normal;font-variant:normal;font-weight:normal;font-stretch:normal;font-size:10.58333302px;line-height:1.25;font-family:Potion;-inkscape-font-specification:Potion;letter-spacing:0px;word-spacing:0px;fill:#000000;fill-opacity:1;stroke:none;stroke-width:0.42766458"
         d="m -438.33191,85.998275 v 7.971667 q 0,1.693552 -1.14613,2.839692 -1.12904,1.129035 -2.83969,1.129035 -1.69355,0 -2.8397,-1.129035 -1.12904,-1.14614 -1.12904,-2.839692 0,-1.710658 1.12904,-2.839692 1.14615,-1.146142 2.8397,-1.146142 1.71065,0 2.85679,1.129034 v -5.114867 q 0.27372,0.0171 0.54742,0.0171 0.29081,0 0.58161,-0.0171 z m -1.91593,5.901771 q -0.7869,-0.786904 -2.06989,-0.786904 -1.26589,0 -2.05279,0.786904 -0.78691,0.786902 -0.78691,2.069896 0,1.265888 0.78691,2.05279 0.7869,0.786902 2.05279,0.786902 0.63294,0 1.16324,-0.205279 0.53031,-0.205279 0.90665,-0.581623 0.37634,-0.376344 0.58162,-0.906649 0.20528,-0.530304 0.20528,-1.146141 0,-1.282994 -0.7869,-2.069896 z" />
      <path
         inkscape:connector-curvature="0"
         id="path1083"
         style="font-style:normal;font-variant:normal;font-weight:normal;font-stretch:normal;font-size:10.58333302px;line-height:1.25;font-family:Potion;-inkscape-font-specification:Potion;letter-spacing:0px;word-spacing:0px;fill:#000000;fill-opacity:1;stroke:none;stroke-width:0.42766458"
         d="m -434.63288,91.13025 q 1.14616,-1.146142 2.83971,-1.146142 1.71065,0 2.83969,1.146142 1.14613,1.129034 1.14613,2.839692 0,1.693552 -1.14613,2.839692 -1.12904,1.129035 -2.83969,1.129035 -1.69355,0 -2.83971,-1.129035 -1.12903,-1.14614 -1.12903,-2.839692 0,-1.710658 1.12903,-2.839692 z m 4.9096,0.769796 q -0.7869,-0.786904 -2.06989,-0.786904 -1.26589,0 -2.05279,0.786904 -0.78692,0.786902 -0.78692,2.069896 0,1.265888 0.78692,2.05279 0.7869,0.786902 2.05279,0.786902 0.63294,0 1.16324,-0.205279 0.53031,-0.205279 0.90665,-0.581623 0.37634,-0.376344 0.58162,-0.906649 0.20528,-0.530304 0.20528,-1.146141 0,-1.282994 -0.7869,-2.069896 z" />
      <path
         inkscape:connector-curvature="0"
         id="path1085"
         style="font-style:normal;font-variant:normal;font-weight:normal;font-stretch:normal;font-size:10.58333302px;line-height:1.25;font-family:Potion;-inkscape-font-specification:Potion;letter-spacing:0px;word-spacing:0px;fill:#000000;fill-opacity:1;stroke:none;stroke-width:0.42766458"
         d="m -425.23734,85.998275 h 1.12904 v 3.985833 h 2.27517 v 1.129034 h -2.27517 v 2.8568 q 0,1.265888 0.7869,2.05279 0.78689,0.786902 2.05279,0.786902 v 1.129035 q -1.69356,0 -2.83969,-1.129035 -1.12904,-1.14614 -1.12904,-2.839692 z" />
    </g>
    <path
       id="path1089"
       d="m -598.60606,72.441431 v 5.114933 c -0.76409,-0.752689 -1.71622,-1.12913 -2.85665,-1.12913 -1.12903,0 -2.07553,0.382087 -2.83964,1.146183 -0.75269,0.752689 -1.12911,1.69918 -1.12911,2.839616 0,1.12904 0.37642,2.07553 1.12911,2.83962 0.76411,0.75269 1.71061,1.12913 2.83964,1.12913 1.14043,0 2.08693,-0.37644 2.83961,-1.12913 0.76409,-0.76409 1.14618,-1.71058 1.14618,-2.83962 v -7.971602 c -0.19386,0.0114 -0.38748,0.01705 -0.58134,0.01705 -0.18249,0 -0.36532,-0.0057 -0.5478,-0.01705 z m 14.22395,0 v 7.971602 c 0,1.12904 0.37592,2.07553 1.12861,2.83962 0.76409,0.75269 1.71111,1.12913 2.84014,1.12913 v -1.12913 c -0.84394,0 -1.5285,-0.26191 -2.05312,-0.78651 -0.52458,-0.5246 -0.78702,-1.20918 -0.78702,-2.05311 v -2.856669 h 2.27531 v -1.12913 h -2.27531 v -3.985803 z m -6.55619,3.985803 c -1.12903,0 -2.0755,0.382087 -2.83962,1.146183 -0.75268,0.752689 -1.12913,1.69918 -1.12913,2.839616 0,1.12904 0.37645,2.07553 1.12913,2.83962 0.76412,0.75269 1.71059,1.12913 2.83962,1.12913 1.14043,0 2.08693,-0.37644 2.83961,-1.12913 0.76409,-0.76409 1.1462,-1.71058 1.1462,-2.83962 0,-1.140436 -0.38211,-2.086927 -1.1462,-2.839616 -0.75268,-0.764096 -1.69918,-1.146183 -2.83961,-1.146183 z m -10.52441,1.12913 c 0.85532,0 1.54554,0.26243 2.07015,0.787032 0.52459,0.5246 0.7865,1.214308 0.7865,2.069637 0,0.41056 -0.0683,0.79265 -0.20513,1.14619 -0.13687,0.35353 -0.33046,0.65602 -0.58137,0.90692 -0.2509,0.25089 -0.55337,0.4445 -0.90691,0.58136 -0.35354,0.13685 -0.74128,0.20515 -1.16324,0.20515 -0.84394,0 -1.528,-0.26191 -2.05259,-0.78651 -0.52461,-0.5246 -0.78705,-1.20918 -0.78705,-2.05311 0,-0.855329 0.26244,-1.545037 0.78705,-2.069637 0.52459,-0.524602 1.20865,-0.787032 2.05259,-0.787032 z m 10.52441,0 c 0.85532,0 1.54556,0.26243 2.07015,0.787032 0.52462,0.5246 0.78703,1.214308 0.78703,2.069637 0,0.41056 -0.0688,0.79265 -0.20566,1.14619 -0.13684,0.35353 -0.33046,0.65602 -0.58137,0.90692 -0.2509,0.25089 -0.55337,0.4445 -0.90691,0.58136 -0.35354,0.13685 -0.74128,0.20515 -1.16324,0.20515 -0.84392,0 -1.528,-0.26191 -2.05259,-0.78651 -0.52461,-0.5246 -0.78703,-1.20918 -0.78703,-2.05311 0,-0.855329 0.26242,-1.545037 0.78703,-2.069637 0.52459,-0.524602 1.20867,-0.787032 2.05259,-0.787032 z"
       style="font-style:normal;font-variant:normal;font-weight:normal;font-stretch:normal;font-size:10.58333302px;line-height:1.25;font-family:Potion;-inkscape-font-specification:Potion;letter-spacing:0px;word-spacing:0px;fill:#000000;fill-opacity:1;stroke:none;stroke-width:0.42766458"
       inkscape:connector-curvature="0" />
    <path
       style="font-style:normal;font-variant:normal;font-weight:normal;font-stretch:normal;font-size:10.58333302px;line-height:1.25;font-family:Potion;-inkscape-font-specification:Potion;letter-spacing:0px;word-spacing:0px;fill:#666666;fill-opacity:1;stroke:none;stroke-width:3.23274016"
       d="m -2898.3438,231.35547 29.3594,43.94531 -25.6445,38.34766 c 5.3161,-4.2736 11.6716,-6.77586 18.6465,-7.375 l 13.8183,-20.74414 6.3594,9.61523 v -14.39844 -5.02929 l 2.0547,0.1289 29.7852,-44.49023 h -13.7012 l -23.5508,35.04101 -23.4258,-35.04101 z m 60.5176,70.19726 v 20.77539 l 2.1797,3.29493 h 11.0625 c 0.3563,-0.76274 0.7468,-1.50919 1.1602,-2.24219 z"
       transform="scale(0.26458333)"
       id="path1095"
       inkscape:connector-curvature="0" />
    <path
       style="font-style:normal;font-variant:normal;font-weight:normal;font-stretch:normal;font-size:10.58333302px;line-height:1.25;font-family:Potion;-inkscape-font-specification:Potion;letter-spacing:0px;word-spacing:0px;fill:#666666;fill-opacity:1;stroke:none;stroke-width:3.23274016"
       d="m -2790.0586,326.06445 13.1758,19.72071 c 0.372,-1.49998 0.5781,-3.09045 0.5781,-4.82422 0,-5.49438 -1.5052,-9.23955 -4.5605,-12.29492 -1.0559,-1.05584 -2.2023,-1.91435 -3.4668,-2.60157 z m 60.6758,0 -1.0039,1.49414 v 13.40235 c 0,2.23239 0.272,4.16272 0.789,5.89062 l 13.9161,-20.78711 z m -30.3086,24.9336 c -1.2,4.2424 -3.1897,8.1625 -5.9297,11.64648 l 4.9219,7.36524 -33.6543,50.32226 h 13.7656 l 26.707,-40.09375 26.5196,40.09375 h 13.7011 l -32.3281,-48.99609 5.3613,-8.00782 c -2.7875,-3.40795 -4.8342,-7.25483 -6.121,-11.42382 l -6.1856,9.20312 z"
       transform="scale(0.26458333)"
       id="path1097"
       inkscape:connector-curvature="0" />
    <g
       id="g1107"
       transform="matrix(1.9985722,0,0,1.9985722,123.94632,-97.592964)"
       style="fill:#ff0000">
      <path
         d="m -438.33191,85.998275 v 7.971667 q 0,1.693552 -1.14613,2.839692 -1.12904,1.129035 -2.83969,1.129035 -1.69355,0 -2.8397,-1.129035 -1.12904,-1.14614 -1.12904,-2.839692 0,-1.710658 1.12904,-2.839692 1.14615,-1.146142 2.8397,-1.146142 1.71065,0 2.85679,1.129034 v -5.114867 q 0.27372,0.0171 0.54742,0.0171 0.29081,0 0.58161,-0.0171 z m -1.91593,5.901771 q -0.7869,-0.786904 -2.06989,-0.786904 -1.26589,0 -2.05279,0.786904 -0.78691,0.786902 -0.78691,2.069896 0,1.265888 0.78691,2.05279 0.7869,0.786902 2.05279,0.786902 0.63294,0 1.16324,-0.205279 0.53031,-0.205279 0.90665,-0.581623 0.37634,-0.376344 0.58162,-0.906649 0.20528,-0.530304 0.20528,-1.146141 0,-1.282994 -0.7869,-2.069896 z"
         style="font-style:normal;font-variant:normal;font-weight:normal;font-stretch:normal;font-size:10.58333302px;line-height:1.25;font-family:Potion;-inkscape-font-specification:Potion;letter-spacing:0px;word-spacing:0px;fill:#ff0000;fill-opacity:1;stroke:none;stroke-width:0.42766458"
         id="path1101"
         inkscape:connector-curvature="0" />
      <path
         d="m -434.63288,91.13025 q 1.14616,-1.146142 2.83971,-1.146142 1.71065,0 2.83969,1.146142 1.14613,1.129034 1.14613,2.839692 0,1.693552 -1.14613,2.839692 -1.12904,1.129035 -2.83969,1.129035 -1.69355,0 -2.83971,-1.129035 -1.12903,-1.14614 -1.12903,-2.839692 0,-1.710658 1.12903,-2.839692 z m 4.9096,0.769796 q -0.7869,-0.786904 -2.06989,-0.786904 -1.26589,0 -2.05279,0.786904 -0.78692,0.786902 -0.78692,2.069896 0,1.265888 0.78692,2.05279 0.7869,0.786902 2.05279,0.786902 0.63294,0 1.16324,-0.205279 0.53031,-0.205279 0.90665,-0.581623 0.37634,-0.376344 0.58162,-0.906649 0.20528,-0.530304 0.20528,-1.146141 0,-1.282994 -0.7869,-2.069896 z"
         style="font-style:normal;font-variant:normal;font-weight:normal;font-stretch:normal;font-size:10.58333302px;line-height:1.25;font-family:Potion;-inkscape-font-specification:Potion;letter-spacing:0px;word-spacing:0px;fill:#ff0000;fill-opacity:1;stroke:none;stroke-width:0.42766458"
         id="path1103"
         inkscape:connector-curvature="0" />
      <path
         d="m -425.23734,85.998275 h 1.12904 v 3.985833 h 2.27517 v 1.129034 h -2.27517 v 2.8568 q 0,1.265888 0.7869,2.05279 0.78689,0.786902 2.05279,0.786902 v 1.129035 q -1.69356,0 -2.83969,-1.129035 -1.12904,-1.14614 -1.12904,-2.839692 z"
         style="font-style:normal;font-variant:normal;font-weight:normal;font-stretch:normal;font-size:10.58333302px;line-height:1.25;font-family:Potion;-inkscape-font-specification:Potion;letter-spacing:0px;word-spacing:0px;fill:#ff0000;fill-opacity:1;stroke:none;stroke-width:0.42766458"
         id="path1105"
         inkscape:connector-curvature="0" />
    </g>
    <path
       inkscape:connector-curvature="0"
       id="path1175"
       style="font-style:normal;font-variant:normal;font-weight:normal;font-stretch:normal;font-size:10.58333302px;line-height:1.25;font-family:Potion;-inkscape-font-specification:Potion;letter-spacing:0px;word-spacing:0px;fill:#666666;fill-opacity:1;stroke:none;stroke-width:0.8573342"
       d="m -907.05517,22.436406 h 3.63362 l 6.21231,9.293371 6.24581,-9.293371 h 3.63364 l -8.03752,12.006029 8.57335,12.993971 h -3.63362 l -7.03283,-10.632954 -7.08303,10.632954 h -3.65038 l 8.92496,-13.345612 z" />
    <path
       d="m -890.42758,47.436406 h 3.63362 l 6.21231,9.293371 6.24581,-9.293371 h 3.63364 l -8.03752,12.006029 8.57335,12.993971 h -3.63362 l -7.03283,-10.632954 -7.08303,10.632954 h -3.65038 l 8.92496,-13.345612 z"
       style="font-style:normal;font-variant:normal;font-weight:normal;font-stretch:normal;font-size:10.58333302px;line-height:1.25;font-family:Potion;-inkscape-font-specification:Potion;letter-spacing:0px;word-spacing:0px;fill:#666666;fill-opacity:1;stroke:none;stroke-width:0.8573342"
       id="path1183"
       inkscape:connector-curvature="0" />
    <path
       style="font-style:normal;font-variant:normal;font-weight:normal;font-stretch:normal;font-size:10.58333302px;line-height:1.25;font-family:Potion;-inkscape-font-specification:Potion;letter-spacing:0px;word-spacing:0px;fill:#666666;fill-opacity:1;stroke:none;stroke-width:0.8573342"
       d="m -835.62758,6.1575015 7.78661,11.6545865 -8.92506,13.345438 h 3.65043 l 7.08276,-10.632943 7.03266,10.632943 7.7866,11.654586 -8.92503,13.345438 h 3.65043 l 7.08277,-10.632943 7.03315,10.632943 h 3.63336 l -8.5731,-12.99404 8.03722,-12.005984 h -3.63337 l -6.24559,9.293489 -6.21255,-9.293489 -8.57314,-12.994039 8.03725,-12.0059855 h -3.63336 l -6.24613,9.2934895 -6.21204,-9.2934895 z"
       id="path1185"
       inkscape:connector-curvature="0" />
    <g
       style="fill:#ff0000"
       transform="matrix(1.9985722,0,0,1.9985722,45.479098,-156.88147)"
       id="g1196">
      <path
         inkscape:connector-curvature="0"
         id="path1190"
         style="font-style:normal;font-variant:normal;font-weight:normal;font-stretch:normal;font-size:10.58333302px;line-height:1.25;font-family:Potion;-inkscape-font-specification:Potion;letter-spacing:0px;word-spacing:0px;fill:#ff0000;fill-opacity:1;stroke:none;stroke-width:0.42766458"
         d="m -438.33191,85.998275 v 7.971667 q 0,1.693552 -1.14613,2.839692 -1.12904,1.129035 -2.83969,1.129035 -1.69355,0 -2.8397,-1.129035 -1.12904,-1.14614 -1.12904,-2.839692 0,-1.710658 1.12904,-2.839692 1.14615,-1.146142 2.8397,-1.146142 1.71065,0 2.85679,1.129034 v -5.114867 q 0.27372,0.0171 0.54742,0.0171 0.29081,0 0.58161,-0.0171 z m -1.91593,5.901771 q -0.7869,-0.786904 -2.06989,-0.786904 -1.26589,0 -2.05279,0.786904 -0.78691,0.786902 -0.78691,2.069896 0,1.265888 0.78691,2.05279 0.7869,0.786902 2.05279,0.786902 0.63294,0 1.16324,-0.205279 0.53031,-0.205279 0.90665,-0.581623 0.37634,-0.376344 0.58162,-0.906649 0.20528,-0.530304 0.20528,-1.146141 0,-1.282994 -0.7869,-2.069896 z" />
      <path
         inkscape:connector-curvature="0"
         id="path1192"
         style="font-style:normal;font-variant:normal;font-weight:normal;font-stretch:normal;font-size:10.58333302px;line-height:1.25;font-family:Potion;-inkscape-font-specification:Potion;letter-spacing:0px;word-spacing:0px;fill:#ff0000;fill-opacity:1;stroke:none;stroke-width:0.42766458"
         d="m -434.63288,91.13025 q 1.14616,-1.146142 2.83971,-1.146142 1.71065,0 2.83969,1.146142 1.14613,1.129034 1.14613,2.839692 0,1.693552 -1.14613,2.839692 -1.12904,1.129035 -2.83969,1.129035 -1.69355,0 -2.83971,-1.129035 -1.12903,-1.14614 -1.12903,-2.839692 0,-1.710658 1.12903,-2.839692 z m 4.9096,0.769796 q -0.7869,-0.786904 -2.06989,-0.786904 -1.26589,0 -2.05279,0.786904 -0.78692,0.786902 -0.78692,2.069896 0,1.265888 0.78692,2.05279 0.7869,0.786902 2.05279,0.786902 0.63294,0 1.16324,-0.205279 0.53031,-0.205279 0.90665,-0.581623 0.37634,-0.376344 0.58162,-0.906649 0.20528,-0.530304 0.20528,-1.146141 0,-1.282994 -0.7869,-2.069896 z" />
      <path
         inkscape:connector-curvature="0"
         id="path1194"
         style="font-style:normal;font-variant:normal;font-weight:normal;font-stretch:normal;font-size:10.58333302px;line-height:1.25;font-family:Potion;-inkscape-font-specification:Potion;letter-spacing:0px;word-spacing:0px;fill:#ff0000;fill-opacity:1;stroke:none;stroke-width:0.42766458"
         d="m -425.23734,85.998275 h 1.12904 v 3.985833 h 2.27517 v 1.129034 h -2.27517 v 2.8568 q 0,1.265888 0.7869,2.05279 0.78689,0.786902 2.05279,0.786902 v 1.129035 q -1.69356,0 -2.83969,-1.129035 -1.12904,-1.14614 -1.12904,-2.839692 z" />
    </g>
    <path
       inkscape:connector-curvature="0"
       id="path1198"
       d="m -761.54218,-5.8024735 7.78661,11.6545865 -8.92506,13.345438 h 3.65043 l 7.08276,-10.632943 7.03266,10.632943 7.7866,11.654586 -8.92503,13.345438 h 3.65043 l 7.08277,-10.632943 7.03315,10.632943 h 3.63336 l -8.5731,-12.99404 8.03722,-12.005984 h -3.63337 l -6.24559,9.293489 -6.21255,-9.293489 -8.57314,-12.994039 8.03725,-12.0059855 h -3.63336 l -6.24613,9.2934895 -6.21204,-9.2934895 z"
       style="font-style:normal;font-variant:normal;font-weight:normal;font-stretch:normal;font-size:10.58333302px;line-height:1.25;font-family:Potion;-inkscape-font-specification:Potion;letter-spacing:0px;word-spacing:0px;fill:#666666;fill-opacity:1;stroke:none;stroke-width:0.8573342" />
    <g
       id="g1206"
       transform="matrix(1.9985722,0,0,1.9985722,120.09367,-168.84144)"
       style="fill:#ff0000;stroke:#ffffff;stroke-width:1.250893;stroke-miterlimit:4;stroke-dasharray:none;paint-order:stroke fill markers">
      <path
         d="m -438.33191,85.998275 v 7.971667 q 0,1.693552 -1.14613,2.839692 -1.12904,1.129035 -2.83969,1.129035 -1.69355,0 -2.8397,-1.129035 -1.12904,-1.14614 -1.12904,-2.839692 0,-1.710658 1.12904,-2.839692 1.14615,-1.146142 2.8397,-1.146142 1.71065,0 2.85679,1.129034 v -5.114867 q 0.27372,0.0171 0.54742,0.0171 0.29081,0 0.58161,-0.0171 z m -1.91593,5.901771 q -0.7869,-0.786904 -2.06989,-0.786904 -1.26589,0 -2.05279,0.786904 -0.78691,0.786902 -0.78691,2.069896 0,1.265888 0.78691,2.05279 0.7869,0.786902 2.05279,0.786902 0.63294,0 1.16324,-0.205279 0.53031,-0.205279 0.90665,-0.581623 0.37634,-0.376344 0.58162,-0.906649 0.20528,-0.530304 0.20528,-1.146141 0,-1.282994 -0.7869,-2.069896 z"
         style="font-style:normal;font-variant:normal;font-weight:normal;font-stretch:normal;font-size:10.58333302px;line-height:1.25;font-family:Potion;-inkscape-font-specification:Potion;letter-spacing:0px;word-spacing:0px;fill:#ff0000;fill-opacity:1;stroke:#ffffff;stroke-width:1.250893;stroke-miterlimit:4;stroke-dasharray:none;paint-order:stroke fill markers"
         id="path1200"
         inkscape:connector-curvature="0" />
      <path
         d="m -434.63288,91.13025 q 1.14616,-1.146142 2.83971,-1.146142 1.71065,0 2.83969,1.146142 1.14613,1.129034 1.14613,2.839692 0,1.693552 -1.14613,2.839692 -1.12904,1.129035 -2.83969,1.129035 -1.69355,0 -2.83971,-1.129035 -1.12903,-1.14614 -1.12903,-2.839692 0,-1.710658 1.12903,-2.839692 z m 4.9096,0.769796 q -0.7869,-0.786904 -2.06989,-0.786904 -1.26589,0 -2.05279,0.786904 -0.78692,0.786902 -0.78692,2.069896 0,1.265888 0.78692,2.05279 0.7869,0.786902 2.05279,0.786902 0.63294,0 1.16324,-0.205279 0.53031,-0.205279 0.90665,-0.581623 0.37634,-0.376344 0.58162,-0.906649 0.20528,-0.530304 0.20528,-1.146141 0,-1.282994 -0.7869,-2.069896 z"
         style="font-style:normal;font-variant:normal;font-weight:normal;font-stretch:normal;font-size:10.58333302px;line-height:1.25;font-family:Potion;-inkscape-font-specification:Potion;letter-spacing:0px;word-spacing:0px;fill:#ff0000;fill-opacity:1;stroke:#ffffff;stroke-width:1.250893;stroke-miterlimit:4;stroke-dasharray:none;paint-order:stroke fill markers"
         id="path1202"
         inkscape:connector-curvature="0" />
      <path
         d="m -425.23734,85.998275 h 1.12904 v 3.985833 h 2.27517 v 1.129034 h -2.27517 v 2.8568 q 0,1.265888 0.7869,2.05279 0.78689,0.786902 2.05279,0.786902 v 1.129035 q -1.69356,0 -2.83969,-1.129035 -1.12904,-1.14614 -1.12904,-2.839692 z"
         style="font-style:normal;font-variant:normal;font-weight:normal;font-stretch:normal;font-size:10.58333302px;line-height:1.25;font-family:Potion;-inkscape-font-specification:Potion;letter-spacing:0px;word-spacing:0px;fill:#ff0000;fill-opacity:1;stroke:#ffffff;stroke-width:1.250893;stroke-miterlimit:4;stroke-dasharray:none;paint-order:stroke fill markers"
         id="path1204"
         inkscape:connector-curvature="0" />
    </g>
    <path
       style="font-style:normal;font-variant:normal;font-weight:normal;font-stretch:normal;font-size:10.58333302px;line-height:1.25;font-family:Potion;-inkscape-font-specification:Potion;letter-spacing:0px;word-spacing:0px;fill:#666666;fill-opacity:1;stroke:none;stroke-width:0.8573342"
       d="m -696.59287,-11.948572 7.78661,11.65458675 -8.92506,13.34543825 h 3.65043 l 7.08276,-10.6329432 7.03266,10.6329432 7.7866,11.654586 -8.92503,13.345438 h 3.65043 l 7.08277,-10.632943 7.03315,10.632943 h 3.63336 l -8.5731,-12.99404 8.03722,-12.005984 h -3.63337 l -6.24559,9.293489 -6.21255,-9.293489 -8.57314,-12.99403925 8.03725,-12.00598575 h -3.63336 l -6.24613,9.2934898 -6.21204,-9.2934898 z"
       id="path1208"
       inkscape:connector-curvature="0" />
    <g
       style="fill:#ff0000;stroke:#ffffff;stroke-width:1.250893;stroke-miterlimit:4;stroke-dasharray:none;paint-order:stroke fill markers"
       transform="matrix(1.9985722,0,0,1.9985722,182.8239,-169.04474)"
       id="g1216">
      <path
         inkscape:connector-curvature="0"
         id="path1210"
         style="font-style:normal;font-variant:normal;font-weight:normal;font-stretch:normal;font-size:10.58333302px;line-height:1.25;font-family:Potion;-inkscape-font-specification:Potion;letter-spacing:0px;word-spacing:0px;fill:#ff0000;fill-opacity:1;stroke:#ffffff;stroke-width:1.250893;stroke-miterlimit:4;stroke-dasharray:none;paint-order:stroke fill markers"
         d="m -438.33191,85.998275 v 7.971667 q 0,1.693552 -1.14613,2.839692 -1.12904,1.129035 -2.83969,1.129035 -1.69355,0 -2.8397,-1.129035 -1.12904,-1.14614 -1.12904,-2.839692 0,-1.710658 1.12904,-2.839692 1.14615,-1.146142 2.8397,-1.146142 1.71065,0 2.85679,1.129034 v -5.114867 q 0.27372,0.0171 0.54742,0.0171 0.29081,0 0.58161,-0.0171 z m -1.91593,5.901771 q -0.7869,-0.786904 -2.06989,-0.786904 -1.26589,0 -2.05279,0.786904 -0.78691,0.786902 -0.78691,2.069896 0,1.265888 0.78691,2.05279 0.7869,0.786902 2.05279,0.786902 0.63294,0 1.16324,-0.205279 0.53031,-0.205279 0.90665,-0.581623 0.37634,-0.376344 0.58162,-0.906649 0.20528,-0.530304 0.20528,-1.146141 0,-1.282994 -0.7869,-2.069896 z" />
      <path
         inkscape:connector-curvature="0"
         id="path1212"
         style="font-style:normal;font-variant:normal;font-weight:normal;font-stretch:normal;font-size:10.58333302px;line-height:1.25;font-family:Potion;-inkscape-font-specification:Potion;letter-spacing:0px;word-spacing:0px;fill:#ff0000;fill-opacity:1;stroke:#ffffff;stroke-width:1.250893;stroke-miterlimit:4;stroke-dasharray:none;paint-order:stroke fill markers"
         d="m -434.63288,91.13025 q 1.14616,-1.146142 2.83971,-1.146142 1.71065,0 2.83969,1.146142 1.14613,1.129034 1.14613,2.839692 0,1.693552 -1.14613,2.839692 -1.12904,1.129035 -2.83969,1.129035 -1.69355,0 -2.83971,-1.129035 -1.12903,-1.14614 -1.12903,-2.839692 0,-1.710658 1.12903,-2.839692 z m 4.9096,0.769796 q -0.7869,-0.786904 -2.06989,-0.786904 -1.26589,0 -2.05279,0.786904 -0.78692,0.786902 -0.78692,2.069896 0,1.265888 0.78692,2.05279 0.7869,0.786902 2.05279,0.786902 0.63294,0 1.16324,-0.205279 0.53031,-0.205279 0.90665,-0.581623 0.37634,-0.376344 0.58162,-0.906649 0.20528,-0.530304 0.20528,-1.146141 0,-1.282994 -0.7869,-2.069896 z" />
      <path
         inkscape:connector-curvature="0"
         id="path1214"
         style="font-style:normal;font-variant:normal;font-weight:normal;font-stretch:normal;font-size:10.58333302px;line-height:1.25;font-family:Potion;-inkscape-font-specification:Potion;letter-spacing:0px;word-spacing:0px;fill:#ff0000;fill-opacity:1;stroke:#ffffff;stroke-width:1.250893;stroke-miterlimit:4;stroke-dasharray:none;paint-order:stroke fill markers"
         d="m -425.23734,85.998275 h 1.12904 v 3.985833 h 2.27517 v 1.129034 h -2.27517 v 2.8568 q 0,1.265888 0.7869,2.05279 0.78689,0.786902 2.05279,0.786902 v 1.129035 q -1.69356,0 -2.83969,-1.129035 -1.12904,-1.14614 -1.12904,-2.839692 z" />
    </g>
    <path
       style="font-style:normal;font-variant:normal;font-weight:normal;font-stretch:normal;font-size:10.58333302px;line-height:1.25;font-family:Potion;-inkscape-font-specification:Potion;letter-spacing:0px;word-spacing:0px;fill:#666666;fill-opacity:1;stroke:none;stroke-width:3.2403183"
       d="m -2448.8398,-94.757812 16.623,24.880859 c 0.474,-0.01825 0.9482,-0.03464 1.4219,-0.0625 l 5.0019,-0.292969 v 9.970703 l 6.3828,9.552735 -6.3828,9.544922 v 20.548828 l 13.2168,-19.841797 6.9004,10.43164 c 2.816,-2.763882 5.9877,-4.96742 9.4434,-6.576171 l -8.4317,-12.779297 30.377,-45.376953 h -13.7324 l -23.6075,35.125 -23.4785,-35.125 z m 62.6953,73.445312 c -2.8494,0.681066 -5.1409,2.002182 -7.1485,4.009766 -0.8446,0.844623 -1.5595,1.750124 -2.1679,2.722656 l 9.4648,14.31054675 7.8652,11.77343725 c 1.4627,-0.199447 2.8264,-0.530008 4.086,-1.017578 2.1154,-0.8188655 3.7987,-1.9118926 5.2129,-3.3261718 0.3114,-0.3114667 0.6018,-0.6409612 0.8828,-0.9804687 l -4.3125,-6.44921875 z m -51.666,2.576172 c 1.1524,2.053005 2.0019,4.276383 2.5683,6.638672 v -4.109375 z m -7.2325,6.353516 -8.0996,12.11328075 h 8.8125 c 0.3583,-1.47532905 0.5586,-3.03729985 0.5586,-4.73828125 0,-2.8958615 -0.4294,-5.2961635 -1.2715,-7.3749995 z m 127.1817,12.11328075 c 0.4857,2.19261185 1.347,4.05828325 2.5937,5.71289065 l 3.8242,-5.71289065 z m -14.8575,11.22265625 -16.0624,23.902344 -9.1075,-13.623047 c -2.9133,2.571958 -6.1861,4.575621 -9.7441,5.982422 l 11.0664,16.564453 -33.7324,50.439453 h 13.7968 l 26.7696,-40.1875 26.582,40.1875 h 13.7324 l -32.4023,-49.111328 16.3535,-24.427734 c -0.3118,-0.285746 -0.6243,-0.572141 -0.9277,-0.871094 l -0.022,-0.02539 -0.027,-0.02344 c -2.5984,-2.637774 -4.6898,-5.597706 -6.2754,-8.806641 z"
       transform="scale(0.26458333)"
       id="path1218"
       inkscape:connector-curvature="0" />
    <g
       id="g1228"
       transform="matrix(1.9985722,0,0,1.9985722,232.96336,-189.13044)"
       style="fill:#ff0000;stroke:none;stroke-width:1.250893;stroke-miterlimit:4;stroke-dasharray:none;paint-order:stroke fill markers">
      <path
         d="m -438.33191,85.998275 v 7.971667 q 0,1.693552 -1.14613,2.839692 -1.12904,1.129035 -2.83969,1.129035 -1.69355,0 -2.8397,-1.129035 -1.12904,-1.14614 -1.12904,-2.839692 0,-1.710658 1.12904,-2.839692 1.14615,-1.146142 2.8397,-1.146142 1.71065,0 2.85679,1.129034 v -5.114867 q 0.27372,0.0171 0.54742,0.0171 0.29081,0 0.58161,-0.0171 z m -1.91593,5.901771 q -0.7869,-0.786904 -2.06989,-0.786904 -1.26589,0 -2.05279,0.786904 -0.78691,0.786902 -0.78691,2.069896 0,1.265888 0.78691,2.05279 0.7869,0.786902 2.05279,0.786902 0.63294,0 1.16324,-0.205279 0.53031,-0.205279 0.90665,-0.581623 0.37634,-0.376344 0.58162,-0.906649 0.20528,-0.530304 0.20528,-1.146141 0,-1.282994 -0.7869,-2.069896 z"
         style="font-style:normal;font-variant:normal;font-weight:normal;font-stretch:normal;font-size:10.58333302px;line-height:1.25;font-family:Potion;-inkscape-font-specification:Potion;letter-spacing:0px;word-spacing:0px;fill:#ff0000;fill-opacity:1;stroke:none;stroke-width:1.250893;stroke-miterlimit:4;stroke-dasharray:none;paint-order:stroke fill markers"
         id="path1222"
         inkscape:connector-curvature="0" />
      <path
         d="m -434.63288,91.13025 q 1.14616,-1.146142 2.83971,-1.146142 1.71065,0 2.83969,1.146142 1.14613,1.129034 1.14613,2.839692 0,1.693552 -1.14613,2.839692 -1.12904,1.129035 -2.83969,1.129035 -1.69355,0 -2.83971,-1.129035 -1.12903,-1.14614 -1.12903,-2.839692 0,-1.710658 1.12903,-2.839692 z m 4.9096,0.769796 q -0.7869,-0.786904 -2.06989,-0.786904 -1.26589,0 -2.05279,0.786904 -0.78692,0.786902 -0.78692,2.069896 0,1.265888 0.78692,2.05279 0.7869,0.786902 2.05279,0.786902 0.63294,0 1.16324,-0.205279 0.53031,-0.205279 0.90665,-0.581623 0.37634,-0.376344 0.58162,-0.906649 0.20528,-0.530304 0.20528,-1.146141 0,-1.282994 -0.7869,-2.069896 z"
         style="font-style:normal;font-variant:normal;font-weight:normal;font-stretch:normal;font-size:10.58333302px;line-height:1.25;font-family:Potion;-inkscape-font-specification:Potion;letter-spacing:0px;word-spacing:0px;fill:#ff0000;fill-opacity:1;stroke:none;stroke-width:1.250893;stroke-miterlimit:4;stroke-dasharray:none;paint-order:stroke fill markers"
         id="path1224"
         inkscape:connector-curvature="0" />
      <path
         d="m -425.23734,85.998275 h 1.12904 v 3.985833 h 2.27517 v 1.129034 h -2.27517 v 2.8568 q 0,1.265888 0.7869,2.05279 0.78689,0.786902 2.05279,0.786902 v 1.129035 q -1.69356,0 -2.83969,-1.129035 -1.12904,-1.14614 -1.12904,-2.839692 z"
         style="font-style:normal;font-variant:normal;font-weight:normal;font-stretch:normal;font-size:10.58333302px;line-height:1.25;font-family:Potion;-inkscape-font-specification:Potion;letter-spacing:0px;word-spacing:0px;fill:#ff0000;fill-opacity:1;stroke:none;stroke-width:1.250893;stroke-miterlimit:4;stroke-dasharray:none;paint-order:stroke fill markers"
         id="path1226"
         inkscape:connector-curvature="0" />
    </g>
    <g
       id="g1289">
      <path
         inkscape:connector-curvature="0"
         style="font-style:normal;font-variant:normal;font-weight:normal;font-stretch:normal;font-size:10.58333302px;line-height:1.25;font-family:Potion;-inkscape-font-specification:Potion;letter-spacing:0px;word-spacing:0px;fill:#666666;fill-opacity:1;stroke:none;stroke-width:0.8573342"
         d="m -566.4063,-58.899255 4.39816,6.58306 c 0.12542,-0.0048 0.25088,-0.0092 0.37622,-0.01654 l 1.32341,-0.07751 v 2.638082 l 1.68879,2.527495 -1.68879,2.525427 v 5.436877 l 3.49695,-5.249809 1.82573,2.760038 c 0.74507,-0.731277 1.58425,-1.314296 2.49857,-1.739945 l -2.23089,-3.381189 8.03725,-12.005985 h -3.63337 l -6.24615,9.293489 -6.21202,-9.293489 z m 16.58813,19.432405 c -0.75391,0.180199 -1.3602,0.529744 -1.89138,1.060917 -0.22346,0.223474 -0.41261,0.463054 -0.57359,0.72037 l 2.50423,3.786332 2.081,3.115055 c 0.38701,-0.05277 0.74782,-0.140231 1.08109,-0.269234 0.5597,-0.216658 1.00507,-0.505855 1.37925,-0.88005 0.0824,-0.08241 0.15922,-0.169587 0.23357,-0.259415 l -1.14102,-1.706356 z m -13.66997,0.681612 c 0.30491,0.543191 0.52967,1.13146 0.67953,1.756482 v -1.087272 z m -1.91359,1.681035 -2.14302,3.204972 h 2.33164 c 0.0948,-0.390348 0.14779,-0.803619 0.14779,-1.25367 0,-0.766197 -0.11361,-1.401277 -0.33641,-1.951302 z m 33.65015,3.204972 c 0.12851,0.580128 0.3564,1.073754 0.68625,1.511536 l 1.01182,-1.511536 z m -3.93104,2.969328 -4.24985,6.324161 -2.40969,-3.604431 c -0.77081,0.680498 -1.63674,1.210633 -2.57813,1.582849 l 2.92799,4.382679 -8.92503,13.345438 h 3.6504 l 7.08279,-10.632943 7.03316,10.632943 h 3.63336 l -8.57311,-12.994039 4.32687,-6.463171 c -0.0825,-0.0756 -0.16518,-0.151379 -0.24546,-0.230477 l -0.006,-0.0067 -0.007,-0.0062 c -0.68749,-0.697911 -1.24084,-1.48106 -1.66036,-2.33009 z"
         id="path1258" />
      <g
         id="g1266"
         transform="matrix(1.9985722,0,0,1.9985722,314.47924,-222.95836)"
         style="fill:#ff0000;stroke:none;stroke-width:1.250893;stroke-miterlimit:4;stroke-dasharray:none;paint-order:stroke fill markers">
        <path
           d="m -438.33191,85.998275 v 7.971667 q 0,1.693552 -1.14613,2.839692 -1.12904,1.129035 -2.83969,1.129035 -1.69355,0 -2.8397,-1.129035 -1.12904,-1.14614 -1.12904,-2.839692 0,-1.710658 1.12904,-2.839692 1.14615,-1.146142 2.8397,-1.146142 1.71065,0 2.85679,1.129034 v -5.114867 q 0.27372,0.0171 0.54742,0.0171 0.29081,0 0.58161,-0.0171 z m -1.91593,5.901771 q -0.7869,-0.786904 -2.06989,-0.786904 -1.26589,0 -2.05279,0.786904 -0.78691,0.786902 -0.78691,2.069896 0,1.265888 0.78691,2.05279 0.7869,0.786902 2.05279,0.786902 0.63294,0 1.16324,-0.205279 0.53031,-0.205279 0.90665,-0.581623 0.37634,-0.376344 0.58162,-0.906649 0.20528,-0.530304 0.20528,-1.146141 0,-1.282994 -0.7869,-2.069896 z"
           style="font-style:normal;font-variant:normal;font-weight:normal;font-stretch:normal;font-size:10.58333302px;line-height:1.25;font-family:Potion;-inkscape-font-specification:Potion;letter-spacing:0px;word-spacing:0px;fill:#ff0000;fill-opacity:1;stroke:none;stroke-width:1.250893;stroke-miterlimit:4;stroke-dasharray:none;paint-order:stroke fill markers"
           id="path1260"
           inkscape:connector-curvature="0" />
        <path
           d="m -434.63288,91.13025 q 1.14616,-1.146142 2.83971,-1.146142 1.71065,0 2.83969,1.146142 1.14613,1.129034 1.14613,2.839692 0,1.693552 -1.14613,2.839692 -1.12904,1.129035 -2.83969,1.129035 -1.69355,0 -2.83971,-1.129035 -1.12903,-1.14614 -1.12903,-2.839692 0,-1.710658 1.12903,-2.839692 z m 4.9096,0.769796 q -0.7869,-0.786904 -2.06989,-0.786904 -1.26589,0 -2.05279,0.786904 -0.78692,0.786902 -0.78692,2.069896 0,1.265888 0.78692,2.05279 0.7869,0.786902 2.05279,0.786902 0.63294,0 1.16324,-0.205279 0.53031,-0.205279 0.90665,-0.581623 0.37634,-0.376344 0.58162,-0.906649 0.20528,-0.530304 0.20528,-1.146141 0,-1.282994 -0.7869,-2.069896 z"
           style="font-style:normal;font-variant:normal;font-weight:normal;font-stretch:normal;font-size:10.58333302px;line-height:1.25;font-family:Potion;-inkscape-font-specification:Potion;letter-spacing:0px;word-spacing:0px;fill:#ff0000;fill-opacity:1;stroke:none;stroke-width:1.250893;stroke-miterlimit:4;stroke-dasharray:none;paint-order:stroke fill markers"
           id="path1262"
           inkscape:connector-curvature="0" />
        <path
           d="m -425.23734,85.998275 h 1.12904 v 3.985833 h 2.27517 v 1.129034 h -2.27517 v 2.8568 q 0,1.265888 0.7869,2.05279 0.78689,0.786902 2.05279,0.786902 v 1.129035 q -1.69356,0 -2.83969,-1.129035 -1.12904,-1.14614 -1.12904,-2.839692 z"
           style="font-style:normal;font-variant:normal;font-weight:normal;font-stretch:normal;font-size:10.58333302px;line-height:1.25;font-family:Potion;-inkscape-font-specification:Potion;letter-spacing:0px;word-spacing:0px;fill:#ff0000;fill-opacity:1;stroke:none;stroke-width:1.250893;stroke-miterlimit:4;stroke-dasharray:none;paint-order:stroke fill markers"
           id="path1264"
           inkscape:connector-curvature="0" />
      </g>
    </g>
  </g>
</svg>
